<?xml version="1.0" standalone="no"?>
<svg viewBox="0 0 200 200" xmlns="http://www.w3.org/2000/svg">
  <path fill="#FF0066" d="M37.1,-56.2C51.5,-56,68.8,-52.9,79.4,-43C89.9,-33.2,93.7,-16.6,92.3,-0.8C91,15,84.4,30,74.8,41.5C65.2,52.9,52.5,60.9,39.5,65.9C26.5,70.9,13.2,73,-0.4,73.7C-14,74.3,-28,73.5,-37.7,66.6C-47.3,59.7,-52.7,46.6,-58.6,34.4C-64.5,22.3,-70.9,11.2,-75,-2.4C-79.1,-15.9,-80.9,-31.8,-73.7,-41.7C-66.5,-51.7,-50.5,-55.7,-36.7,-56.2C-23,-56.7,-11.5,-53.8,-0.1,-53.7C11.4,-53.6,22.7,-56.3,37.1,-56.2Z" transform="translate(100 100)" />
</svg>
